
        <svg width="3242.175402607621" height="3265.045491426239" xmlns="http://www.w3.org/2000/svg" xmlns:xlink="http://www.w3.org/1999/xlink" version="1.1">
            <rect fill="#001b51" width="3242.175402607621" height="3265.045491426239"/>
            <g transform="scale(13.252274571311961) translate(10, 10)">
                <defs id="SvgjsDefs1002"><linearGradient id="SvgjsLinearGradient1011"><stop id="SvgjsStop1012" stop-color="#b88746" offset="0"/><stop id="SvgjsStop1013" stop-color="#fdf5a6" offset="1"/></linearGradient></defs><g id="SvgjsG1008" transform="translate(0, 0.00640869140625) scale(4.549422091745304)" rel="inversefill" name="filled_container" xmlns:name="filledContainer_inversefill" fill="#ffffff">  <title>assets</title>  <path d="M697.09,770.31a22.84,22.84,0,0,0-44.75,0l-0.28-.06a23.12,23.12,0,0,1,45.3,0Z" transform="translate(-650 -750)"/>  <path d="M674.71,798a23.19,23.19,0,0,1-22.65-18.46l0.28-.06a22.84,22.84,0,0,0,44.75,0l0.28,0.06A23.18,23.18,0,0,1,674.71,798Z" transform="translate(-650 -750)"/>  <path d="M699.09,771.93h-6.26v-0.56h5.93a24.32,24.32,0,0,0-48.12,0h5.93v0.56H650l0-.32a24.88,24.88,0,0,1,49.33,0v0.32h-0.28Z" transform="translate(-650 -750)"/>  <path d="M674.71,799.75A24.93,24.93,0,0,1,650,778.15l0-.32h6.58v0.56h-5.93a24.32,24.32,0,0,0,48.12,0h-5.93v-0.56h6.54v0.32A24.93,24.93,0,0,1,674.71,799.75Z" transform="translate(-650 -750)"/></g><g id="main_text" rel="mainfill" name="main_text" xmlns:name="mainText_mainfill" fill="#ffffff" transform="translate(90.74444344939587, 134.97611556053164)"><path d="M11.776 28.992 c0.736 0 2.112 -0.288 2.08 -0.288 l2.944 2.688 c-1.504 0.768 -3.2 1.216 -5.024 1.216 c-6.08 0 -10.976 -4.928 -10.976 -10.976 c0 -6.08 4.896 -10.976 10.976 -10.976 s10.976 4.896 10.976 10.976 c0 3.04 -1.248 5.792 -3.264 7.776 l-2.624 -2.432 c1.408 -1.344 2.272 -3.232 2.272 -5.344 c0 -4.064 -3.264 -7.392 -7.36 -7.392 s-7.36 3.328 -7.36 7.392 s3.264 7.36 7.36 7.36 z M16.8 31.392 c0.992 -0.544 1.92 -1.216 2.688 -1.984 l3.264 2.944 l-4.896 0 z M34.9376 28.544 c1.472 0 2.848 -0.48 4 -1.28 l0 -16.032 l0 0 l3.424 0 l0 17.696 c-1.92 1.888 -4.544 3.072 -7.424 3.072 s-5.536 -1.184 -7.424 -3.072 l0 -17.696 l3.424 0 l0 0 l0 16.032 c1.12 0.8 2.496 1.28 4 1.28 z M37.5616 2.847999999999999 c0.96 0 1.76 0.768 1.76 1.76 c0 0.96 -0.8 1.76 -1.76 1.76 s-1.76 -0.8 -1.76 -1.76 c0 -0.992 0.8 -1.76 1.76 -1.76 z M32.3776 2.847999999999999 c0.928 0.032 1.696 0.832 1.664 1.824 c0 0.928 -0.8 1.728 -1.792 1.696 c-0.96 -0.032 -1.728 -0.832 -1.696 -1.824 c0.032 -0.96 0.832 -1.728 1.824 -1.696 z"/></g><g id="SvgjsG1010" rel="mainfill" name="symbol" xmlns:name="symbol_mainfill" fill="url(#SvgjsLinearGradient1011)" transform="translate(646.5740996166373, -295.1305594942575) scale(1.3733903780577332)"><g xmlns="http://www.w3.org/2000/svg"><path class="st0" d="M-352,277.8c-0.8-2-7.6-3.3-7.6-3.3h-58.8c0,0-6.8,1.3-7.6,3.3c-0.4,1-0.2,9.8-0.2,9.8c0,1.2,0.3,2.3,1.3,3   c0,0.1-0.3,0.1-0.3,0.2v10.9c0.1,1.6,1.8,2.6,3.5,2.6h6.2c1.7,0,3.4-1,3.4-2.7v-3.3l6.9,0.4l0.9,0.5h30.6l0.9-0.5l6.9-0.4v3.3   c0,1.7,1.7,2.7,3.4,2.7h6.2c1.7,0,3.4-1,3.5-2.6v-10.9c0-0.1-0.3-0.1-0.3-0.2c1-0.7,1.3-1.8,1.3-3   C-351.8,287.6-351.6,278.8-352,277.8z M-405.8,289.6c0,0-13.1-5.6-14.4-6.4c-0.5-0.3-0.6-0.7-0.5-1.1c0.2-0.8,1.4-1.5,1.4-1.5   s10.2,1.3,12.3,2c2.1,0.7,3.5,3.5,3.4,5.4C-403.7,289.8-405.8,289.6-405.8,289.6z M-357.8,283.2c-1.3,0.8-14.4,6.4-14.4,6.4   s-2.1,0.2-2.2-1.6c-0.1-1.9,1.3-4.7,3.4-5.4c2.1-0.7,12.3-2,12.3-2S-356.1,282.2-357.8,283.2z"/><path class="st0" d="M-349.6,269.5c-0.1,0.7-0.6,1.3-1.2,1.5c-0.3,0.1-5.6,1.1-5.6,1.1c-0.8,0.2-1.6-0.2-2-0.9l-0.3,2.8   c0,0-6.6-9.4-7.6-10.8c-1-1.4-4.4-3-4.4-3h-36.6c0,0-3.4,1.6-4.4,3c-1,1.4-7.6,10.8-7.6,10.8l-0.3-2.8c-0.4,0.7-1.2,1.1-2,0.9   c0,0-5.5-1-5.8-1.2c-0.5-0.3-0.9-0.8-1-1.4c-0.2-1,0.6-2,1.6-2.1l3.9-0.5c0.6-0.1,2.3,1.6,2.6,1.8c0.3,0.2,0.7,0.5,0.8,0.7   c1.2-1.6,6.7-9.3,7.8-10c1.3-0.8,2.9-1.6,4.1-1.7h37.2c1.2,0.1,2.8,0.9,4.1,1.7c1.1,0.7,6.6,8.4,7.8,10c0.1-0.3,0.5-0.5,0.8-0.7   s2-1.9,2.6-1.8l3.9,0.5C-350.2,267.5-349.4,268.5-349.6,269.5z"/></g></g>
            </g>
        </svg>
    